<svg width="48" height="48" viewBox="0 0 48 48" fill="none" xmlns="http://www.w3.org/2000/svg">
<rect width="48" height="48" rx="8" fill="url(#paint0_linear_6188_75541)"/>
<path d="M36.8673 10.0646H30.923C30.5468 10.0646 30.2419 10.3734 30.2419 10.7545V13.376H27.3191C25.815 13.3776 24.5962 14.6121 24.5946 16.1355V20.513H22.5139C22.1377 20.513 21.8328 20.8218 21.8328 21.2028V23.3102H17.7585V20.6887C17.7585 20.3076 17.4535 19.9988 17.0773 19.9988H11.1328C10.7566 19.9988 10.4517 20.3076 10.4517 20.6887V27.3115C10.4517 27.6925 10.7566 28.0013 11.1328 28.0013H17.0773C17.4535 28.0013 17.7585 27.6925 17.7585 27.3115V24.6899H21.8328V26.7973C21.8328 27.1783 22.1377 27.4872 22.5139 27.4872H24.5946V31.8646C24.5962 33.388 25.815 34.6225 27.3191 34.6241H30.2419V37.2457C30.2419 37.6267 30.5468 37.9355 30.923 37.9355H36.8673C37.2435 37.9355 37.5484 37.6267 37.5484 37.2457V30.6229C37.5484 30.2418 37.2435 29.933 36.8673 29.933H30.923C30.5468 29.933 30.2419 30.2418 30.2419 30.6229V33.2444H27.3191C26.567 33.2436 25.9577 32.6262 25.9569 31.8646V27.4872H27.7401C28.1163 27.4872 28.4212 27.1783 28.4212 26.7973V21.2028C28.4212 20.8218 28.1163 20.513 27.7401 20.513H25.9569V16.1355C25.9577 15.3739 26.567 14.7565 27.3191 14.7557H30.2419V17.3773C30.2419 17.7583 30.5468 18.0671 30.923 18.0671H36.8673C37.2435 18.0671 37.5484 17.7583 37.5484 17.3773V10.7545C37.5484 10.3734 37.2435 10.0646 36.8673 10.0646Z" fill="white"/>
<defs>
<linearGradient id="paint0_linear_6188_75541" x1="24" y1="0" x2="24" y2="48" gradientUnits="userSpaceOnUse">
<stop stop-color="#FCA549"/>
<stop offset="1" stop-color="#F39531"/>
</linearGradient>
</defs>
</svg>
