<svg width="16" height="16" viewBox="0 0 16 16" fill="none" xmlns="http://www.w3.org/2000/svg">
<path d="M10.0001 9.33337H6.00008C5.82327 9.33337 5.6537 9.40361 5.52868 9.52864C5.40365 9.65366 5.33341 9.82323 5.33341 10C5.33341 10.1769 5.40365 10.3464 5.52868 10.4714C5.6537 10.5965 5.82327 10.6667 6.00008 10.6667H10.0001C10.1769 10.6667 10.3465 10.5965 10.4715 10.4714C10.5965 10.3464 10.6667 10.1769 10.6667 10C10.6667 9.82323 10.5965 9.65366 10.4715 9.52864C10.3465 9.40361 10.1769 9.33337 10.0001 9.33337ZM10.0001 6.66671H7.33341C7.1566 6.66671 6.98703 6.73695 6.86201 6.86197C6.73699 6.98699 6.66675 7.15656 6.66675 7.33337C6.66675 7.51019 6.73699 7.67975 6.86201 7.80478C6.98703 7.9298 7.1566 8.00004 7.33341 8.00004H10.0001C10.1769 8.00004 10.3465 7.9298 10.4715 7.80478C10.5965 7.67975 10.6667 7.51019 10.6667 7.33337C10.6667 7.15656 10.5965 6.98699 10.4715 6.86197C10.3465 6.73695 10.1769 6.66671 10.0001 6.66671ZM11.3334 2.66671H10.5467C10.4092 2.27767 10.1547 1.94071 9.81812 1.702C9.48155 1.46329 9.07938 1.33453 8.66675 1.33337H7.33341C6.92078 1.33453 6.51861 1.46329 6.18204 1.702C5.84546 1.94071 5.59096 2.27767 5.45341 2.66671H4.66675C4.13631 2.66671 3.62761 2.87742 3.25253 3.25249C2.87746 3.62757 2.66675 4.13627 2.66675 4.66671V12.6667C2.66675 13.1971 2.87746 13.7058 3.25253 14.0809C3.62761 14.456 4.13631 14.6667 4.66675 14.6667H11.3334C11.8638 14.6667 12.3726 14.456 12.7476 14.0809C13.1227 13.7058 13.3334 13.1971 13.3334 12.6667V4.66671C13.3334 4.13627 13.1227 3.62757 12.7476 3.25249C12.3726 2.87742 11.8638 2.66671 11.3334 2.66671ZM6.66675 3.33337C6.66675 3.15656 6.73699 2.98699 6.86201 2.86197C6.98703 2.73695 7.1566 2.66671 7.33341 2.66671H8.66675C8.84356 2.66671 9.01313 2.73695 9.13815 2.86197C9.26318 2.98699 9.33341 3.15656 9.33341 3.33337V4.00004H6.66675V3.33337ZM12.0001 12.6667C12.0001 12.8435 11.9298 13.0131 11.8048 13.1381C11.6798 13.2631 11.5102 13.3334 11.3334 13.3334H4.66675C4.48994 13.3334 4.32037 13.2631 4.19534 13.1381C4.07032 13.0131 4.00008 12.8435 4.00008 12.6667V4.66671C4.00008 4.4899 4.07032 4.32033 4.19534 4.1953C4.32037 4.07028 4.48994 4.00004 4.66675 4.00004H5.33341V4.66671C5.33341 4.84352 5.40365 5.01309 5.52868 5.13811C5.6537 5.26314 5.82327 5.33337 6.00008 5.33337H10.0001C10.1769 5.33337 10.3465 5.26314 10.4715 5.13811C10.5965 5.01309 10.6667 4.84352 10.6667 4.66671V4.00004H11.3334C11.5102 4.00004 11.6798 4.07028 11.8048 4.1953C11.9298 4.32033 12.0001 4.4899 12.0001 4.66671V12.6667Z" fill="#4877EF"/>
</svg>
