<svg width="20" height="20" viewBox="0 0 20 20" fill="none" xmlns="http://www.w3.org/2000/svg">
<path d="M6.66655 9.16663C6.50174 9.16663 6.34062 9.2155 6.20358 9.30707C6.06654 9.39864 5.95973 9.52878 5.89666 9.68106C5.83358 9.83333 5.81708 10.0009 5.84923 10.1625C5.88139 10.3242 5.96076 10.4727 6.0773 10.5892C6.19384 10.7058 6.34233 10.7851 6.50398 10.8173C6.66563 10.8494 6.83319 10.8329 6.98546 10.7699C7.13773 10.7068 7.26788 10.6 7.35945 10.4629C7.45101 10.3259 7.49989 10.1648 7.49989 9.99996C7.49989 9.77894 7.41209 9.56698 7.25581 9.4107C7.09953 9.25442 6.88757 9.16663 6.66655 9.16663ZM9.99989 9.16663C9.83507 9.16663 9.67395 9.2155 9.53691 9.30707C9.39987 9.39864 9.29306 9.52878 9.22999 9.68106C9.16692 9.83333 9.15041 10.0009 9.18257 10.1625C9.21472 10.3242 9.29409 10.4727 9.41063 10.5892C9.52718 10.7058 9.67566 10.7851 9.83731 10.8173C9.99896 10.8494 10.1665 10.8329 10.3188 10.7699C10.4711 10.7068 10.6012 10.6 10.6928 10.4629C10.7843 10.3259 10.8332 10.1648 10.8332 9.99996C10.8332 9.77894 10.7454 9.56698 10.5891 9.4107C10.4329 9.25442 10.2209 9.16663 9.99989 9.16663ZM13.3332 9.16663C13.1684 9.16663 13.0073 9.2155 12.8702 9.30707C12.7332 9.39864 12.6264 9.52878 12.5633 9.68106C12.5002 9.83333 12.4837 10.0009 12.5159 10.1625C12.5481 10.3242 12.6274 10.4727 12.744 10.5892C12.8605 10.7058 13.009 10.7851 13.1706 10.8173C13.3323 10.8494 13.4999 10.8329 13.6521 10.7699C13.8044 10.7068 13.9345 10.6 14.0261 10.4629C14.1177 10.3259 14.1666 10.1648 14.1666 9.99996C14.1666 9.77894 14.0788 9.56698 13.9225 9.4107C13.7662 9.25442 13.5542 9.16663 13.3332 9.16663ZM9.99989 1.66663C8.90554 1.66663 7.82191 1.88217 6.81086 2.30096C5.79981 2.71975 4.88115 3.33358 4.10733 4.1074C2.54453 5.67021 1.66656 7.78982 1.66656 9.99996C1.65927 11.9242 2.32555 13.7904 3.54989 15.275L1.88322 16.9416C1.76759 17.0588 1.68926 17.2076 1.65812 17.3693C1.62697 17.5309 1.64441 17.6982 1.70822 17.85C1.77744 17.9999 1.88964 18.1259 2.03059 18.212C2.17155 18.298 2.33489 18.3402 2.49989 18.3333H9.99989C12.21 18.3333 14.3296 17.4553 15.8924 15.8925C17.4552 14.3297 18.3332 12.2101 18.3332 9.99996C18.3332 7.78982 17.4552 5.67021 15.8924 4.1074C14.3296 2.5446 12.21 1.66663 9.99989 1.66663ZM9.99989 16.6666H4.50822L5.28322 15.8916C5.36196 15.8144 5.4246 15.7224 5.46752 15.6208C5.51043 15.5193 5.53276 15.4102 5.53322 15.3C5.53009 15.0802 5.44023 14.8705 5.28322 14.7166C4.19204 13.6267 3.51253 12.1921 3.36046 10.6573C3.20839 9.1225 3.59317 7.58246 4.44924 6.29956C5.30531 5.01666 6.57971 4.07026 8.05532 3.6216C9.53092 3.17295 11.1164 3.2498 12.5417 3.83905C13.967 4.42831 15.1439 5.49352 15.8719 6.8532C16.5999 8.21288 16.8339 9.78291 16.5342 11.2958C16.2344 12.8087 15.4193 14.1708 14.2278 15.1502C13.0364 16.1295 11.5422 16.6654 9.99989 16.6666Z" fill="black"/>
</svg>
