<svg width="16" height="16" viewBox="0 0 16 16" fill="none" xmlns="http://www.w3.org/2000/svg">
<path d="M12 12C11.8232 12 11.6536 12.0703 11.5286 12.1953C11.4036 12.3203 11.3333 12.4899 11.3333 12.6667C11.3333 12.8435 11.2631 13.0131 11.1381 13.1381C11.013 13.2631 10.8435 13.3334 10.6667 13.3334H4C3.82319 13.3334 3.65362 13.2631 3.5286 13.1381C3.40357 13.0131 3.33333 12.8435 3.33333 12.6667V3.33337C3.33333 3.15656 3.40357 2.98699 3.5286 2.86197C3.65362 2.73695 3.82319 2.66671 4 2.66671H7.33333V4.66671C7.33333 5.19714 7.54405 5.70585 7.91912 6.08092C8.29419 6.45599 8.8029 6.66671 9.33333 6.66671H11.3333V7.33337C11.3333 7.51019 11.4036 7.67975 11.5286 7.80478C11.6536 7.9298 11.8232 8.00004 12 8.00004C12.1768 8.00004 12.3464 7.9298 12.4714 7.80478C12.5964 7.67975 12.6667 7.51019 12.6667 7.33337V6.00004C12.6667 6.00004 12.6667 6.00004 12.6667 5.96004C12.6597 5.8988 12.6463 5.83846 12.6267 5.78004C12.6295 5.76014 12.6295 5.73994 12.6267 5.72004C12.5946 5.65149 12.5519 5.58848 12.5 5.53337L8.5 1.53337C8.44489 1.48152 8.38188 1.43876 8.31333 1.40671H8.24667C8.18377 1.37299 8.11645 1.34831 8.04667 1.33337H4C3.46957 1.33337 2.96086 1.54409 2.58579 1.91916C2.21071 2.29423 2 2.80294 2 3.33337V12.6667C2 13.1971 2.21071 13.7058 2.58579 14.0809C2.96086 14.456 3.46957 14.6667 4 14.6667H10.6667C11.1971 14.6667 11.7058 14.456 12.0809 14.0809C12.456 13.7058 12.6667 13.1971 12.6667 12.6667C12.6667 12.4899 12.5964 12.3203 12.4714 12.1953C12.3464 12.0703 12.1768 12 12 12ZM8.66667 3.60671L10.3933 5.33337H9.33333C9.15652 5.33337 8.98695 5.26314 8.86193 5.13811C8.73691 5.01309 8.66667 4.84352 8.66667 4.66671V3.60671ZM13.3333 9.33337H11.6667C11.5789 9.33287 11.492 9.34968 11.4107 9.38286C11.3295 9.41604 11.2556 9.46492 11.1933 9.52671L10.3667 10.36L8.5 8.22671C8.43995 8.15791 8.36641 8.10219 8.28394 8.06299C8.20147 8.02379 8.11183 8.00195 8.02057 7.99882C7.92931 7.9957 7.83838 8.01135 7.75342 8.04482C7.66846 8.07829 7.59128 8.12885 7.52667 8.19337L6.39333 9.33337H5.33333C5.15652 9.33337 4.98695 9.40361 4.86193 9.52864C4.7369 9.65366 4.66667 9.82323 4.66667 10C4.66667 10.1769 4.7369 10.3464 4.86193 10.4714C4.98695 10.5965 5.15652 10.6667 5.33333 10.6667H6.66667C6.7544 10.6672 6.84138 10.6504 6.9226 10.6172C7.00383 10.584 7.07771 10.5352 7.14 10.4734L8 9.64004L9.86667 11.7734C9.92689 11.842 10.0006 11.8976 10.0831 11.9365C10.1657 11.9755 10.2554 11.9971 10.3467 12C10.4344 12.0005 10.5214 11.9837 10.6026 11.9506C10.6838 11.9174 10.7577 11.8685 10.82 11.8067L11.94 10.6667H13.3333C13.5101 10.6667 13.6797 10.5965 13.8047 10.4714C13.9298 10.3464 14 10.1769 14 10C14 9.82323 13.9298 9.65366 13.8047 9.52864C13.6797 9.40361 13.5101 9.33337 13.3333 9.33337Z" fill="#4877EF"/>
</svg>
