<svg width="22" height="22" viewBox="0 0 22 22" fill="none" xmlns="http://www.w3.org/2000/svg">
<path d="M16.5 16.5C16.2569 16.5 16.0237 16.5966 15.8518 16.7685C15.6799 16.9404 15.5833 17.1736 15.5833 17.4167C15.5833 17.6598 15.4868 17.893 15.3148 18.0649C15.1429 18.2368 14.9098 18.3334 14.6667 18.3334H5.5C5.25688 18.3334 5.02373 18.2368 4.85182 18.0649C4.67991 17.893 4.58333 17.6598 4.58333 17.4167V4.58337C4.58333 4.34026 4.67991 4.1071 4.85182 3.93519C5.02373 3.76328 5.25688 3.66671 5.5 3.66671H10.0833V6.41671C10.0833 7.14605 10.3731 7.84553 10.8888 8.36125C11.4045 8.87698 12.104 9.16671 12.8333 9.16671H15.5833V10.0834C15.5833 10.3265 15.6799 10.5596 15.8518 10.7316C16.0237 10.9035 16.2569 11 16.5 11C16.7431 11 16.9763 10.9035 17.1482 10.7316C17.3201 10.5596 17.4167 10.3265 17.4167 10.0834V8.25004C17.4167 8.25004 17.4167 8.25004 17.4167 8.19504C17.4071 8.11083 17.3887 8.02787 17.3617 7.94754C17.3656 7.92018 17.3656 7.8924 17.3617 7.86504C17.3176 7.77079 17.2588 7.68415 17.1875 7.60837L11.6875 2.10837C11.6117 2.03707 11.5251 1.97828 11.4308 1.93421H11.3392C11.2527 1.88785 11.1601 1.85391 11.0642 1.83337H5.5C4.77065 1.83337 4.07118 2.12311 3.55546 2.63883C3.03973 3.15456 2.75 3.85403 2.75 4.58337V17.4167C2.75 18.1461 3.03973 18.8455 3.55546 19.3612C4.07118 19.877 4.77065 20.1667 5.5 20.1667H14.6667C15.396 20.1667 16.0955 19.877 16.6112 19.3612C17.1269 18.8455 17.4167 18.1461 17.4167 17.4167C17.4167 17.1736 17.3201 16.9404 17.1482 16.7685C16.9763 16.5966 16.7431 16.5 16.5 16.5ZM11.9167 4.95921L14.2908 7.33337H12.8333C12.5902 7.33337 12.3571 7.2368 12.1852 7.06489C12.0132 6.89298 11.9167 6.65982 11.9167 6.41671V4.95921ZM18.3333 12.8334H16.0417C15.921 12.8327 15.8014 12.8558 15.6898 12.9014C15.5781 12.947 15.4765 13.0142 15.3908 13.0992L14.2542 14.245L11.6875 11.3117C11.6049 11.2171 11.5038 11.1405 11.3904 11.0866C11.277 11.0327 11.1538 11.0027 11.0283 10.9984C10.9028 10.9941 10.7778 11.0156 10.6609 11.0616C10.5441 11.1076 10.438 11.1772 10.3492 11.2659L8.79083 12.8334H7.33333C7.09022 12.8334 6.85706 12.93 6.68515 13.1019C6.51324 13.2738 6.41667 13.5069 6.41667 13.75C6.41667 13.9932 6.51324 14.2263 6.68515 14.3982C6.85706 14.5701 7.09022 14.6667 7.33333 14.6667H9.16667C9.28731 14.6674 9.4069 14.6443 9.51858 14.5987C9.63027 14.553 9.73185 14.4858 9.8175 14.4009L11 13.255L13.5667 16.1884C13.6495 16.2828 13.7508 16.3591 13.8643 16.4127C13.9778 16.4663 14.1012 16.4961 14.2267 16.5C14.3473 16.5007 14.4669 16.4776 14.5786 16.432C14.6903 16.3864 14.7918 16.3192 14.8775 16.2342L16.4175 14.6667H18.3333C18.5764 14.6667 18.8096 14.5701 18.9815 14.3982C19.1534 14.2263 19.25 13.9932 19.25 13.75C19.25 13.5069 19.1534 13.2738 18.9815 13.1019C18.8096 12.93 18.5764 12.8334 18.3333 12.8334Z" fill="white" fill-opacity="0.4"/>
</svg>
