<svg width="20" height="20" viewBox="0 0 20 20" fill="none" xmlns="http://www.w3.org/2000/svg">
<path d="M2.91659 5C2.75177 5 2.59065 5.04887 2.45361 5.14044C2.31657 5.23201 2.20976 5.36216 2.14669 5.51443C2.08361 5.6667 2.06711 5.83426 2.09926 5.99591C2.13142 6.15756 2.21079 6.30604 2.32733 6.42259C2.44387 6.53913 2.59236 6.6185 2.75401 6.65065C2.91566 6.68281 3.08322 6.66631 3.23549 6.60323C3.38776 6.54016 3.51791 6.43335 3.60948 6.29631C3.70105 6.15927 3.74992 5.99815 3.74992 5.83333C3.74992 5.61232 3.66212 5.40036 3.50584 5.24408C3.34956 5.0878 3.1376 5 2.91659 5ZM6.24992 6.66667H17.9166C18.1376 6.66667 18.3496 6.57887 18.5058 6.42259C18.6621 6.26631 18.7499 6.05435 18.7499 5.83333C18.7499 5.61232 18.6621 5.40036 18.5058 5.24408C18.3496 5.0878 18.1376 5 17.9166 5H6.24992C6.02891 5 5.81694 5.0878 5.66066 5.24408C5.50438 5.40036 5.41659 5.61232 5.41659 5.83333C5.41659 6.05435 5.50438 6.26631 5.66066 6.42259C5.81694 6.57887 6.02891 6.66667 6.24992 6.66667ZM6.24992 9.16667C6.0851 9.16667 5.92399 9.21554 5.78694 9.30711C5.6499 9.39868 5.54309 9.52882 5.48002 9.6811C5.41695 9.83337 5.40044 10.0009 5.4326 10.1626C5.46475 10.3242 5.54412 10.4727 5.66066 10.5893C5.77721 10.7058 5.92569 10.7852 6.08734 10.8173C6.24899 10.8495 6.41655 10.833 6.56882 10.7699C6.72109 10.7068 6.85124 10.6 6.94281 10.463C7.03438 10.3259 7.08325 10.1648 7.08325 10C7.08325 9.77899 6.99546 9.56702 6.83917 9.41074C6.68289 9.25446 6.47093 9.16667 6.24992 9.16667ZM9.58325 13.3333C9.41844 13.3333 9.25732 13.3822 9.12028 13.4738C8.98324 13.5653 8.87643 13.6955 8.81335 13.8478C8.75028 14 8.73378 14.1676 8.76593 14.3292C8.79809 14.4909 8.87745 14.6394 8.994 14.7559C9.11054 14.8725 9.25903 14.9518 9.42068 14.984C9.58233 15.0161 9.74988 14.9996 9.90216 14.9366C10.0544 14.8735 10.1846 14.7667 10.2761 14.6296C10.3677 14.4926 10.4166 14.3315 10.4166 14.1667C10.4166 13.9457 10.3288 13.7337 10.1725 13.5774C10.0162 13.4211 9.80427 13.3333 9.58325 13.3333ZM17.9166 9.16667H9.58325C9.36224 9.16667 9.15028 9.25446 8.994 9.41074C8.83772 9.56702 8.74992 9.77899 8.74992 10C8.74992 10.221 8.83772 10.433 8.994 10.5893C9.15028 10.7455 9.36224 10.8333 9.58325 10.8333H17.9166C18.1376 10.8333 18.3496 10.7455 18.5058 10.5893C18.6621 10.433 18.7499 10.221 18.7499 10C18.7499 9.77899 18.6621 9.56702 18.5058 9.41074C18.3496 9.25446 18.1376 9.16667 17.9166 9.16667ZM17.9166 13.3333H12.9166C12.6956 13.3333 12.4836 13.4211 12.3273 13.5774C12.1711 13.7337 12.0833 13.9457 12.0833 14.1667C12.0833 14.3877 12.1711 14.5996 12.3273 14.7559C12.4836 14.9122 12.6956 15 12.9166 15H17.9166C18.1376 15 18.3496 14.9122 18.5058 14.7559C18.6621 14.5996 18.7499 14.3877 18.7499 14.1667C18.7499 13.9457 18.6621 13.7337 18.5058 13.5774C18.3496 13.4211 18.1376 13.3333 17.9166 13.3333Z" fill="#959595"/>
</svg>
