<svg width="20" height="20" viewBox="0 0 20 20" fill="none" xmlns="http://www.w3.org/2000/svg">
<path fill-rule="evenodd" clip-rule="evenodd" d="M9.9999 0.833374C8.45281 0.833374 6.96908 1.44796 5.87511 2.54192C4.78115 3.63588 4.16657 5.11961 4.16657 6.66671C4.16657 9.46059 3.56901 11.1956 3.01832 12.2052C2.74183 12.7121 2.47259 13.0446 2.28557 13.242C2.19184 13.341 2.11818 13.4066 2.07384 13.4435C2.05165 13.462 2.03677 13.4733 2.03036 13.4781L2.02798 13.4799C1.72924 13.6851 1.59704 14.0605 1.70233 14.4082C1.80874 14.7597 2.13268 15 2.4999 15H17.4999C17.8671 15 18.1911 14.7597 18.2975 14.4082C18.4028 14.0605 18.2706 13.6851 17.9718 13.4799L17.9694 13.4781C17.963 13.4733 17.9482 13.462 17.926 13.4435C17.8816 13.4066 17.808 13.341 17.7142 13.242C17.5272 13.0446 17.258 12.7121 16.9815 12.2052C16.4308 11.1956 15.8332 9.46059 15.8332 6.66671C15.8332 5.11961 15.2187 3.63588 14.1247 2.54192C13.0307 1.44796 11.547 0.833374 9.9999 0.833374ZM15.5183 13.0033C15.5817 13.1195 15.6454 13.2295 15.7088 13.3334H4.29101C4.35441 13.2295 4.41807 13.1195 4.48148 13.0033C5.18079 11.7212 5.83324 9.70616 5.83324 6.66671C5.83324 5.56164 6.27222 4.50183 7.05362 3.72043C7.83503 2.93903 8.89483 2.50004 9.9999 2.50004C11.105 2.50004 12.1648 2.93903 12.9462 3.72043C13.7276 4.50183 14.1666 5.56164 14.1666 6.66671C14.1666 9.70616 14.819 11.7212 15.5183 13.0033ZM9.27908 17.0819C9.04815 16.6838 8.53821 16.5483 8.14011 16.7792C7.742 17.0102 7.60648 17.5201 7.83742 17.9182C8.05718 18.2971 8.37261 18.6115 8.75213 18.8301C9.13165 19.0487 9.56194 19.1638 9.99991 19.1638C10.4379 19.1638 10.8682 19.0487 11.2477 18.8301C11.6272 18.6115 11.9427 18.2971 12.1624 17.9182C12.3933 17.5201 12.2578 17.0102 11.8597 16.7792C11.4616 16.5483 10.9517 16.6838 10.7207 17.0819C10.6475 17.2082 10.5423 17.313 10.4158 17.3859C10.2893 17.4588 10.1459 17.4971 9.99991 17.4971C9.85392 17.4971 9.71049 17.4588 9.58399 17.3859C9.45748 17.313 9.35234 17.2082 9.27908 17.0819Z" fill="black"/>
</svg>
