<svg width="16" height="16" viewBox="0 0 16 16" fill="none" xmlns="http://www.w3.org/2000/svg">
<path d="M4.66659 9.33337H5.99992C6.17673 9.33337 6.3463 9.26314 6.47132 9.13811C6.59635 9.01309 6.66659 8.84352 6.66659 8.66671C6.66659 8.4899 6.59635 8.32033 6.47132 8.1953C6.3463 8.07028 6.17673 8.00004 5.99992 8.00004H4.66659C4.48977 8.00004 4.32021 8.07028 4.19518 8.1953C4.07016 8.32033 3.99992 8.4899 3.99992 8.66671C3.99992 8.84352 4.07016 9.01309 4.19518 9.13811C4.32021 9.26314 4.48977 9.33337 4.66659 9.33337ZM8.66659 10.6667H4.66659C4.48977 10.6667 4.32021 10.7369 4.19518 10.862C4.07016 10.987 3.99992 11.1566 3.99992 11.3334C3.99992 11.5102 4.07016 11.6798 4.19518 11.8048C4.32021 11.9298 4.48977 12 4.66659 12H8.66659C8.8434 12 9.01297 11.9298 9.13799 11.8048C9.26301 11.6798 9.33325 11.5102 9.33325 11.3334C9.33325 11.1566 9.26301 10.987 9.13799 10.862C9.01297 10.7369 8.8434 10.6667 8.66659 10.6667ZM12.6666 1.33337H3.33325C2.80282 1.33337 2.29411 1.54409 1.91904 1.91916C1.54397 2.29423 1.33325 2.80294 1.33325 3.33337V12.6667C1.33325 13.1971 1.54397 13.7058 1.91904 14.0809C2.29411 14.456 2.80282 14.6667 3.33325 14.6667H12.6666C13.197 14.6667 13.7057 14.456 14.0808 14.0809C14.4559 13.7058 14.6666 13.1971 14.6666 12.6667V3.33337C14.6666 2.80294 14.4559 2.29423 14.0808 1.91916C13.7057 1.54409 13.197 1.33337 12.6666 1.33337ZM9.33325 2.66671V4.86004L8.32659 4.30004C8.22524 4.24153 8.11028 4.21072 7.99325 4.21072C7.87623 4.21072 7.76126 4.24153 7.65992 4.30004L6.66659 4.86004V2.66671H9.33325ZM13.3333 12.6667C13.3333 12.8435 13.263 13.0131 13.138 13.1381C13.013 13.2631 12.8434 13.3334 12.6666 13.3334H3.33325C3.15644 13.3334 2.98687 13.2631 2.86185 13.1381C2.73682 13.0131 2.66659 12.8435 2.66659 12.6667V3.33337C2.66659 3.15656 2.73682 2.98699 2.86185 2.86197C2.98687 2.73695 3.15644 2.66671 3.33325 2.66671H5.33325V6.00004C5.33395 6.11638 5.36509 6.23052 5.42357 6.3311C5.48205 6.43168 5.56583 6.5152 5.66659 6.57337C5.76793 6.63189 5.88289 6.66269 5.99992 6.66269C6.11694 6.66269 6.23191 6.63189 6.33325 6.57337L7.99992 5.64671L9.67325 6.58004C9.77289 6.63651 9.88539 6.66636 9.99992 6.66671C10.1767 6.66671 10.3463 6.59647 10.4713 6.47145C10.5963 6.34642 10.6666 6.17685 10.6666 6.00004V2.66671H12.6666C12.8434 2.66671 13.013 2.73695 13.138 2.86197C13.263 2.98699 13.3333 3.15656 13.3333 3.33337V12.6667Z" fill="#959595"/>
</svg>
