<svg width="25" height="24" viewBox="0 0 25 24" fill="none" xmlns="http://www.w3.org/2000/svg">
<path d="M19.666 11H13.666V5C13.666 4.73478 13.5607 4.48043 13.3731 4.29289C13.1856 4.10536 12.9312 4 12.666 4C12.4008 4 12.1464 4.10536 11.9589 4.29289C11.7714 4.48043 11.666 4.73478 11.666 5V11H5.66602C5.4008 11 5.14645 11.1054 4.95891 11.2929C4.77137 11.4804 4.66602 11.7348 4.66602 12C4.66602 12.2652 4.77137 12.5196 4.95891 12.7071C5.14645 12.8946 5.4008 13 5.66602 13H11.666V19C11.666 19.2652 11.7714 19.5196 11.9589 19.7071C12.1464 19.8946 12.4008 20 12.666 20C12.9312 20 13.1856 19.8946 13.3731 19.7071C13.5607 19.5196 13.666 19.2652 13.666 19V13H19.666C19.9312 13 20.1856 12.8946 20.3731 12.7071C20.5607 12.5196 20.666 12.2652 20.666 12C20.666 11.7348 20.5607 11.4804 20.3731 11.2929C20.1856 11.1054 19.9312 11 19.666 11Z" fill="#959595"/>
</svg>
