<svg width="16" height="16" viewBox="0 0 16 16" fill="none" xmlns="http://www.w3.org/2000/svg">
<path d="M5.33341 11.3334C5.20156 11.3334 5.07267 11.3725 4.96303 11.4457C4.8534 11.519 4.76795 11.6231 4.71749 11.7449C4.66704 11.8667 4.65383 12.0008 4.67956 12.1301C4.70528 12.2594 4.76878 12.3782 4.86201 12.4714C4.95525 12.5647 5.07403 12.6282 5.20335 12.6539C5.33267 12.6796 5.46672 12.6664 5.58854 12.616C5.71035 12.5655 5.81447 12.4801 5.88773 12.3704C5.96098 12.2608 6.00008 12.1319 6.00008 12C6.00008 11.8232 5.92984 11.6537 5.80482 11.5286C5.67979 11.4036 5.51023 11.3334 5.33341 11.3334ZM5.33341 7.33337C5.20156 7.33337 5.07267 7.37247 4.96303 7.44573C4.8534 7.51898 4.76795 7.6231 4.71749 7.74492C4.66704 7.86674 4.65383 8.00078 4.67956 8.1301C4.70528 8.25942 4.76878 8.37821 4.86201 8.47145C4.95525 8.56468 5.07403 8.62817 5.20335 8.6539C5.33267 8.67962 5.46672 8.66642 5.58854 8.61596C5.71035 8.5655 5.81447 8.48005 5.88773 8.37042C5.96098 8.26079 6.00008 8.1319 6.00008 8.00004C6.00008 7.82323 5.92984 7.65366 5.80482 7.52864C5.67979 7.40361 5.51023 7.33337 5.33341 7.33337ZM5.33341 3.33337C5.20156 3.33337 5.07267 3.37247 4.96303 3.44573C4.8534 3.51898 4.76795 3.6231 4.71749 3.74492C4.66704 3.86674 4.65383 4.00078 4.67956 4.1301C4.70528 4.25942 4.76878 4.37821 4.86201 4.47145C4.95525 4.56468 5.07403 4.62817 5.20335 4.6539C5.33267 4.67962 5.46672 4.66642 5.58854 4.61596C5.71035 4.5655 5.81447 4.48005 5.88773 4.37042C5.96098 4.26079 6.00008 4.1319 6.00008 4.00004C6.00008 3.82323 5.92984 3.65366 5.80482 3.52864C5.67979 3.40361 5.51023 3.33337 5.33341 3.33337ZM13.3334 3.33337C13.3334 2.80294 13.1227 2.29423 12.7476 1.91916C12.3726 1.54409 11.8638 1.33337 11.3334 1.33337H4.66675C4.13631 1.33337 3.62761 1.54409 3.25253 1.91916C2.87746 2.29423 2.66675 2.80294 2.66675 3.33337V4.66671C2.66969 5.16008 2.85489 5.63495 3.18675 6.00004C2.85489 6.36513 2.66969 6.84 2.66675 7.33337V8.66671C2.66969 9.16008 2.85489 9.63495 3.18675 10C2.85489 10.3651 2.66969 10.84 2.66675 11.3334V12.6667C2.66675 13.1971 2.87746 13.7058 3.25253 14.0809C3.62761 14.456 4.13631 14.6667 4.66675 14.6667H11.3334C11.8638 14.6667 12.3726 14.456 12.7476 14.0809C13.1227 13.7058 13.3334 13.1971 13.3334 12.6667V11.3334C13.3305 10.84 13.1453 10.3651 12.8134 10C13.1453 9.63495 13.3305 9.16008 13.3334 8.66671V7.33337C13.3305 6.84 13.1453 6.36513 12.8134 6.00004C13.1453 5.63495 13.3305 5.16008 13.3334 4.66671V3.33337ZM12.0001 12.6667C12.0001 12.8435 11.9298 13.0131 11.8048 13.1381C11.6798 13.2631 11.5102 13.3334 11.3334 13.3334H4.66675C4.48994 13.3334 4.32037 13.2631 4.19534 13.1381C4.07032 13.0131 4.00008 12.8435 4.00008 12.6667V11.3334C4.00008 11.1566 4.07032 10.987 4.19534 10.862C4.32037 10.7369 4.48994 10.6667 4.66675 10.6667H11.3334C11.5102 10.6667 11.6798 10.7369 11.8048 10.862C11.9298 10.987 12.0001 11.1566 12.0001 11.3334V12.6667ZM12.0001 8.66671C12.0001 8.84352 11.9298 9.01309 11.8048 9.13811C11.6798 9.26314 11.5102 9.33337 11.3334 9.33337H4.66675C4.48994 9.33337 4.32037 9.26314 4.19534 9.13811C4.07032 9.01309 4.00008 8.84352 4.00008 8.66671V7.33337C4.00008 7.15656 4.07032 6.98699 4.19534 6.86197C4.32037 6.73695 4.48994 6.66671 4.66675 6.66671H11.3334C11.5102 6.66671 11.6798 6.73695 11.8048 6.86197C11.9298 6.98699 12.0001 7.15656 12.0001 7.33337V8.66671ZM12.0001 4.66671C12.0001 4.84352 11.9298 5.01309 11.8048 5.13811C11.6798 5.26314 11.5102 5.33337 11.3334 5.33337H4.66675C4.48994 5.33337 4.32037 5.26314 4.19534 5.13811C4.07032 5.01309 4.00008 4.84352 4.00008 4.66671V3.33337C4.00008 3.15656 4.07032 2.98699 4.19534 2.86197C4.32037 2.73695 4.48994 2.66671 4.66675 2.66671H11.3334C11.5102 2.66671 11.6798 2.73695 11.8048 2.86197C11.9298 2.98699 12.0001 3.15656 12.0001 3.33337V4.66671Z" fill="#959595"/>
</svg>
