<svg width="22" height="22" viewBox="0 0 22 22" fill="none" xmlns="http://www.w3.org/2000/svg">
<g clip-path="url(#clip0_6188_85082)">
<path d="M20.1667 13.75H18.3334V11C18.3334 10.7568 18.2368 10.5237 18.0649 10.3518C17.893 10.1799 17.6599 10.0833 17.4167 10.0833H11.9167V8.24996H13.7501C13.9932 8.24996 14.2264 8.15338 14.3983 7.98147C14.5702 7.80957 14.6667 7.57641 14.6667 7.33329V1.83329C14.6667 1.59018 14.5702 1.35702 14.3983 1.18511C14.2264 1.0132 13.9932 0.916626 13.7501 0.916626H8.25008C8.00697 0.916626 7.77381 1.0132 7.6019 1.18511C7.42999 1.35702 7.33341 1.59018 7.33341 1.83329V7.33329C7.33341 7.57641 7.42999 7.80957 7.6019 7.98147C7.77381 8.15338 8.00697 8.24996 8.25008 8.24996H10.0834V10.0833H4.58341C4.3403 10.0833 4.10714 10.1799 3.93523 10.3518C3.76333 10.5237 3.66675 10.7568 3.66675 11V13.75H1.83341C1.5903 13.75 1.35714 13.8465 1.18523 14.0184C1.01333 14.1904 0.916748 14.4235 0.916748 14.6666V20.1666C0.916748 20.4097 1.01333 20.6429 1.18523 20.8148C1.35714 20.9867 1.5903 21.0833 1.83341 21.0833H7.33341C7.57653 21.0833 7.80969 20.9867 7.9816 20.8148C8.1535 20.6429 8.25008 20.4097 8.25008 20.1666V14.6666C8.25008 14.4235 8.1535 14.1904 7.9816 14.0184C7.80969 13.8465 7.57653 13.75 7.33341 13.75H5.50008V11.9166H16.5001V13.75H14.6667C14.4236 13.75 14.1905 13.8465 14.0186 14.0184C13.8467 14.1904 13.7501 14.4235 13.7501 14.6666V20.1666C13.7501 20.4097 13.8467 20.6429 14.0186 20.8148C14.1905 20.9867 14.4236 21.0833 14.6667 21.0833H20.1667C20.4099 21.0833 20.643 20.9867 20.8149 20.8148C20.9868 20.6429 21.0834 20.4097 21.0834 20.1666V14.6666C21.0834 14.4235 20.9868 14.1904 20.8149 14.0184C20.643 13.8465 20.4099 13.75 20.1667 13.75ZM6.41675 15.5833V19.25H2.75008V15.5833H6.41675ZM9.16675 6.41663V2.74996H12.8334V6.41663H9.16675ZM19.2501 19.25H15.5834V15.5833H19.2501V19.25Z" fill="white" fill-opacity="0.4"/>
</g>
<defs>
<clipPath id="clip0_6188_85082">
<rect width="22" height="22" fill="white"/>
</clipPath>
</defs>
</svg>
