<svg width="22" height="22" viewBox="0 0 22 22" fill="none" xmlns="http://www.w3.org/2000/svg">
<path d="M17.4166 5.95829H14.6666V5.04163C14.6666 4.31228 14.3769 3.61281 13.8611 3.09708C13.3454 2.58136 12.6459 2.29163 11.9166 2.29163H10.0833C9.35391 2.29163 8.65443 2.58136 8.13871 3.09708C7.62298 3.61281 7.33325 4.31228 7.33325 5.04163V5.95829H4.58325C3.85391 5.95829 3.15443 6.24802 2.63871 6.76375C2.12298 7.27947 1.83325 7.97895 1.83325 8.70829V16.9583C1.83325 17.6876 2.12298 18.3871 2.63871 18.9028C3.15443 19.4186 3.85391 19.7083 4.58325 19.7083H17.4166C18.1459 19.7083 18.8454 19.4186 19.3611 18.9028C19.8769 18.3871 20.1666 17.6876 20.1666 16.9583V8.70829C20.1666 7.97895 19.8769 7.27947 19.3611 6.76375C18.8454 6.24802 18.1459 5.95829 17.4166 5.95829ZM9.16658 5.04163C9.16658 4.79851 9.26316 4.56535 9.43507 4.39345C9.60698 4.22154 9.84014 4.12496 10.0833 4.12496H11.9166C12.1597 4.12496 12.3929 4.22154 12.5648 4.39345C12.7367 4.56535 12.8333 4.79851 12.8333 5.04163V5.95829H9.16658V5.04163ZM18.3333 16.9583C18.3333 17.2014 18.2367 17.4346 18.0648 17.6065C17.8929 17.7784 17.6597 17.875 17.4166 17.875H4.58325C4.34014 17.875 4.10698 17.7784 3.93507 17.6065C3.76316 17.4346 3.66659 17.2014 3.66659 16.9583V12.3291H6.41658V13.2916C6.41658 13.5347 6.51316 13.7679 6.68507 13.9398C6.85698 14.1117 7.09014 14.2083 7.33325 14.2083C7.57637 14.2083 7.80952 14.1117 7.98143 13.9398C8.15334 13.7679 8.24992 13.5347 8.24992 13.2916V12.3291H13.7499V13.2916C13.7499 13.5347 13.8465 13.7679 14.0184 13.9398C14.1903 14.1117 14.4235 14.2083 14.6666 14.2083C14.9097 14.2083 15.1429 14.1117 15.3148 13.9398C15.4867 13.7679 15.5833 13.5347 15.5833 13.2916V12.3291H18.3333V16.9583ZM18.3333 10.5416H3.66659V8.70829C3.66659 8.46518 3.76316 8.23202 3.93507 8.06011C4.10698 7.8882 4.34014 7.79163 4.58325 7.79163H17.4166C17.6597 7.79163 17.8929 7.8882 18.0648 8.06011C18.2367 8.23202 18.3333 8.46518 18.3333 8.70829V10.5416Z" fill="white" fill-opacity="0.4"/>
</svg>
