<svg width="3" height="9" viewBox="0 0 3 9" fill="none" xmlns="http://www.w3.org/2000/svg">
<mask id="path-1-inside-1_6188_64372" fill="white">
<path d="M0.666016 0.125L0.666016 1.875L2.41602 1.875L2.41602 0.125L0.666016 0.125ZM2.41602 8.875L2.41602 7.125L0.666016 7.125L0.666016 8.875L2.41602 8.875ZM0.666016 3.625L0.666016 5.375L2.41602 5.375L2.41602 3.625L0.666016 3.625Z"/>
</mask>
<path d="M0.666016 0.125L0.666016 1.875L2.41602 1.875L2.41602 0.125L0.666016 0.125ZM2.41602 8.875L2.41602 7.125L0.666016 7.125L0.666016 8.875L2.41602 8.875ZM0.666016 3.625L0.666016 5.375L2.41602 5.375L2.41602 3.625L0.666016 3.625Z" fill="#959595"/>
<path d="M0.666016 0.125L0.666016 -2.125L-1.58398 -2.125L-1.58398 0.125L0.666016 0.125ZM0.666016 1.875L-1.58398 1.875L-1.58398 4.125L0.666016 4.125L0.666016 1.875ZM2.41602 1.875L2.41602 4.125L4.66602 4.125L4.66602 1.875L2.41602 1.875ZM2.41602 0.125L4.66602 0.125L4.66602 -2.125L2.41602 -2.125L2.41602 0.125ZM2.41602 8.875L2.41602 11.125L4.66602 11.125L4.66602 8.875L2.41602 8.875ZM2.41602 7.125L4.66602 7.125L4.66602 4.875L2.41602 4.875L2.41602 7.125ZM0.666016 7.125L0.666016 4.875L-1.58398 4.875L-1.58398 7.125L0.666016 7.125ZM0.666016 8.875L-1.58398 8.875L-1.58398 11.125L0.666016 11.125L0.666016 8.875ZM0.666016 3.625L0.666016 1.375L-1.58398 1.375L-1.58398 3.625L0.666016 3.625ZM0.666016 5.375L-1.58398 5.375L-1.58398 7.625L0.666016 7.625L0.666016 5.375ZM2.41602 5.375L2.41602 7.625L4.66602 7.625L4.66602 5.375L2.41602 5.375ZM2.41602 3.625L4.66602 3.625L4.66602 1.375L2.41602 1.375L2.41602 3.625ZM-1.58398 0.125L-1.58398 1.875L2.91602 1.875L2.91602 0.125L-1.58398 0.125ZM0.666016 4.125L2.41602 4.125L2.41602 -0.375L0.666016 -0.375L0.666016 4.125ZM4.66602 1.875L4.66602 0.125L0.166016 0.125L0.166016 1.875L4.66602 1.875ZM2.41602 -2.125L0.666016 -2.125L0.666016 2.375L2.41602 2.375L2.41602 -2.125ZM4.66602 8.875L4.66602 7.125L0.166015 7.125L0.166015 8.875L4.66602 8.875ZM2.41602 4.875L0.666016 4.875L0.666016 9.375L2.41602 9.375L2.41602 4.875ZM-1.58398 7.125L-1.58398 8.875L2.91602 8.875L2.91602 7.125L-1.58398 7.125ZM0.666016 11.125L2.41602 11.125L2.41602 6.625L0.666016 6.625L0.666016 11.125ZM-1.58398 3.625L-1.58398 5.375L2.91602 5.375L2.91602 3.625L-1.58398 3.625ZM0.666016 7.625L2.41602 7.625L2.41602 3.125L0.666016 3.125L0.666016 7.625ZM4.66602 5.375L4.66602 3.625L0.166015 3.625L0.166015 5.375L4.66602 5.375ZM2.41602 1.375L0.666016 1.375L0.666016 5.875L2.41602 5.875L2.41602 1.375Z" fill="#959595" mask="url(#path-1-inside-1_6188_64372)"/>
</svg>
